<svg version="1.1" id="Layer_1" xmlns="http://www.w3.org/2000/svg" xmlns:xlink="http://www.w3.org/1999/xlink" x="0px" y="0px"
	 width="100%" viewBox="0 0 219 219" enable-background="new 0 0 219 219" xml:space="preserve">
<path fill="#2ECC71" opacity="1.000000" stroke="none" 
	d="
M209.052002,220.000000 
	C139.378540,220.000000 70.213142,220.000000 1.023876,220.000000 
	C1.023876,147.017273 1.023876,74.034531 1.023876,1.025893 
	C73.981384,1.025893 146.962784,1.025893 219.972092,1.025893 
	C219.972092,73.980042 219.972092,146.960098 219.972092,220.000000 
	C216.520142,220.000000 213.040100,220.000000 209.052002,220.000000 
M53.916012,196.474686 
	C53.916012,199.902664 53.916012,203.330658 53.916012,206.703690 
	C57.891766,206.703690 61.144863,206.703690 64.962906,206.703690 
	C64.962906,198.344131 64.962906,190.275665 64.962906,182.277283 
	C74.253433,182.277283 82.960121,182.277283 92.031349,182.277283 
	C92.031349,190.642197 92.031349,198.583771 92.031349,206.633621 
	C95.784920,206.633621 99.148811,206.633621 102.550613,206.633621 
	C102.550613,187.336670 102.550613,168.418610 102.550613,149.298401 
	C99.003716,149.298401 95.754845,149.298401 91.869919,149.298401 
	C91.869919,157.569870 91.869919,165.622498 91.869919,173.596924 
	C82.500954,173.596924 73.774757,173.596924 64.620819,173.596924 
	C64.620819,165.272980 64.620819,157.338699 64.620819,149.337784 
	C60.924675,149.337784 57.672745,149.337784 53.916012,149.337784 
	C53.916012,164.901291 53.916012,180.190796 53.916012,196.474686 
M170.789398,204.878937 
	C177.078415,207.680557 183.558304,208.538437 190.198151,206.412689 
	C197.803391,203.977890 202.292053,197.821274 202.724014,189.570419 
	C203.089111,182.596924 199.829742,178.079132 191.833298,174.695450 
	C188.016296,173.080292 183.832794,172.103500 180.384415,169.933289 
	C178.425385,168.700378 176.207474,165.299805 176.645752,163.490662 
	C177.191544,161.237671 180.198029,158.297287 182.426498,158.030472 
	C185.937851,157.610031 189.894180,158.661041 193.276001,160.037704 
	C196.631882,161.403793 198.298447,160.918427 200.125076,157.845276 
	C202.183365,154.382355 200.259933,153.019623 197.735199,151.695755 
	C191.750305,148.557480 185.397324,147.776489 178.886139,149.413300 
	C171.385834,151.298752 166.438919,157.150345 166.029160,164.125854 
	C165.560287,172.107529 169.034866,177.137131 177.284393,180.281677 
	C180.852539,181.641785 184.564331,182.666336 188.029785,184.241684 
	C190.856644,185.526749 192.793793,187.659622 192.420013,191.281723 
	C192.022919,195.129990 189.989853,197.964691 186.395874,198.098480 
	C182.442337,198.245651 178.073257,197.772003 174.529907,196.155609 
	C167.592484,192.990906 167.180939,192.802597 164.094208,200.504959 
	C166.046967,201.804260 168.085175,203.160416 170.789398,204.878937 
M147.973816,196.981125 
	C134.647995,201.256851 124.526924,195.597092 122.418320,182.292389 
	C121.128922,174.156616 122.597420,166.432571 129.679474,161.238953 
	C135.795609,156.753693 142.737167,156.622330 149.562744,159.770798 
	C156.171341,162.819183 156.276505,162.886688 159.640366,155.968536 
	C148.891769,145.562912 128.878662,146.344543 118.705879,157.567276 
	C107.694672,169.714966 108.723969,190.899399 120.832573,201.337753 
	C131.755768,210.754211 150.685013,209.438766 159.519730,198.649307 
	C155.004135,192.595490 155.004135,192.595490 147.973816,196.981125 
z"/>
<path fill="#FAFEFC" opacity="1.000000" stroke="none" 
	d="
M53.916012,195.977493 
	C53.916012,180.190796 53.916012,164.901291 53.916012,149.337784 
	C57.672745,149.337784 60.924675,149.337784 64.620819,149.337784 
	C64.620819,157.338699 64.620819,165.272980 64.620819,173.596924 
	C73.774757,173.596924 82.500954,173.596924 91.869919,173.596924 
	C91.869919,165.622498 91.869919,157.569870 91.869919,149.298401 
	C95.754845,149.298401 99.003716,149.298401 102.550613,149.298401 
	C102.550613,168.418610 102.550613,187.336670 102.550613,206.633621 
	C99.148811,206.633621 95.784920,206.633621 92.031349,206.633621 
	C92.031349,198.583771 92.031349,190.642197 92.031349,182.277283 
	C82.960121,182.277283 74.253433,182.277283 64.962906,182.277283 
	C64.962906,190.275665 64.962906,198.344131 64.962906,206.703690 
	C61.144863,206.703690 57.891766,206.703690 53.916012,206.703690 
	C53.916012,203.330658 53.916012,199.902664 53.916012,195.977493 
z"/>
<path fill="#FBFEFC" opacity="1.000000" stroke="none" 
	d="
M170.456390,204.697754 
	C168.085175,203.160416 166.046967,201.804260 164.094208,200.504959 
	C167.180939,192.802597 167.592484,192.990906 174.529907,196.155609 
	C178.073257,197.772003 182.442337,198.245651 186.395874,198.098480 
	C189.989853,197.964691 192.022919,195.129990 192.420013,191.281723 
	C192.793793,187.659622 190.856644,185.526749 188.029785,184.241684 
	C184.564331,182.666336 180.852539,181.641785 177.284393,180.281677 
	C169.034866,177.137131 165.560287,172.107529 166.029160,164.125854 
	C166.438919,157.150345 171.385834,151.298752 178.886139,149.413300 
	C185.397324,147.776489 191.750305,148.557480 197.735199,151.695755 
	C200.259933,153.019623 202.183365,154.382355 200.125076,157.845276 
	C198.298447,160.918427 196.631882,161.403793 193.276001,160.037704 
	C189.894180,158.661041 185.937851,157.610031 182.426498,158.030472 
	C180.198029,158.297287 177.191544,161.237671 176.645752,163.490662 
	C176.207474,165.299805 178.425385,168.700378 180.384415,169.933289 
	C183.832794,172.103500 188.016296,173.080292 191.833298,174.695450 
	C199.829742,178.079132 203.089111,182.596924 202.724014,189.570419 
	C202.292053,197.821274 197.803391,203.977890 190.198151,206.412689 
	C183.558304,208.538437 177.078415,207.680557 170.456390,204.697754 
z"/>
<path fill="#FBFEFC" opacity="1.000000" stroke="none" 
	d="
M148.344742,196.857498 
	C155.004135,192.595490 155.004135,192.595490 159.519730,198.649307 
	C150.685013,209.438766 131.755768,210.754211 120.832573,201.337753 
	C108.723969,190.899399 107.694672,169.714966 118.705879,157.567276 
	C128.878662,146.344543 148.891769,145.562912 159.640366,155.968536 
	C156.276505,162.886688 156.171341,162.819183 149.562744,159.770798 
	C142.737167,156.622330 135.795609,156.753693 129.679474,161.238953 
	C122.597420,166.432571 121.128922,174.156616 122.418320,182.292389 
	C124.526924,195.597092 134.647995,201.256851 148.344742,196.857498 
z"/>
</svg>