<svg version="1.1" id="Layer_1" xmlns="http://www.w3.org/2000/svg" xmlns:xlink="http://www.w3.org/1999/xlink" x="0px" y="0px"
	 width="100%" viewBox="0 0 300 300" enable-background="new 0 0 300 300" xml:space="preserve">
<path fill="#FEFFFE" opacity="1.000000" stroke="none" 
	d="
M202.000000,301.000000 
	C134.666672,301.000000 67.833359,301.000000 1.000027,301.000000 
	C1.000018,201.000031 1.000018,101.000061 1.000009,1.000067 
	C100.999947,1.000045 200.999893,1.000045 300.999878,1.000022 
	C300.999939,100.999939 300.999939,200.999878 300.999969,300.999908 
	C268.166656,301.000000 235.333328,301.000000 202.000000,301.000000 
M265.246918,122.323235 
	C260.217010,122.345703 255.187119,122.368164 249.978226,121.423248 
	C249.933853,117.936531 249.743118,114.443764 249.886795,110.964813 
	C250.027100,107.566948 248.783615,106.328178 245.262589,106.359238 
	C227.827560,106.513031 210.390518,106.438263 192.965317,105.694550 
	C195.633453,101.563431 198.599030,97.591805 200.915344,93.272034 
	C208.636307,78.873009 214.693176,63.857410 212.871231,47.095772 
	C210.888794,28.857676 201.305908,17.008011 182.397339,14.970273 
	C173.977997,14.062940 164.990784,14.777604 156.729095,16.732714 
	C131.047272,22.810236 110.674896,37.886658 93.124664,57.020889 
	C81.285278,69.928856 72.017654,84.479599 66.993095,101.415634 
	C66.133453,104.313187 64.027527,107.276390 67.354172,110.560524 
	C82.531441,125.543907 97.453072,140.786026 112.564453,155.836914 
	C113.536476,156.805038 115.581680,157.712708 116.705765,157.348038 
	C124.715508,154.749557 133.068222,152.670792 140.442856,148.779709 
	C151.148880,143.130920 161.123611,136.096146 171.390717,130.582596 
	C171.391617,131.406921 171.390366,132.231247 171.393768,133.055557 
	C171.419296,139.227524 171.715927,139.534149 177.784729,139.551880 
	C182.070724,139.564392 186.356735,139.560074 191.046448,140.501923 
	C191.046448,144.877762 191.046448,149.253601 191.046448,154.252258 
	C199.243774,154.252258 206.772278,154.252258 214.193985,155.008316 
	C213.930130,155.964050 213.618378,156.909470 213.409637,157.877090 
	C210.202713,172.741608 207.203934,187.654236 203.765808,202.464905 
	C198.910141,223.382248 193.771027,244.234299 188.652252,265.089508 
	C187.818451,268.486633 188.895538,269.683716 192.263748,269.632721 
	C198.085449,269.544617 203.910141,269.652924 210.026733,270.531616 
	C209.366333,273.532104 209.032227,276.654694 207.966293,279.503418 
	C206.500473,283.420837 207.285172,284.871490 211.643738,284.738617 
	C219.288589,284.505585 226.987000,284.185303 234.583054,284.835449 
	C239.754684,285.278015 241.001465,282.846497 241.923294,278.768280 
	C248.686508,248.847824 255.517136,218.942505 262.381042,189.044922 
	C264.414337,180.188431 267.705933,171.466492 268.485992,162.514282 
	C269.550537,150.296982 268.826752,137.917343 268.646576,125.610558 
	C268.632324,124.636124 266.880035,123.687126 265.246918,122.323235 
M15.070955,175.537521 
	C14.446209,179.125534 13.425407,182.696335 13.268521,186.304703 
	C12.726104,198.780167 19.156662,207.698410 31.339264,210.339096 
	C35.842049,211.315140 40.891586,210.686279 45.542664,209.903488 
	C66.870979,206.313828 80.910530,192.373978 93.660141,175.922287 
	C78.883270,161.462616 64.509567,147.397461 49.838512,133.041321 
	C34.104645,143.051300 21.362305,156.117035 15.070955,175.537521 
z"/>
<path fill="#020202" opacity="1.000000" stroke="none" 
	d="
M171.410217,129.652466 
	C161.123611,136.096146 151.148880,143.130920 140.442856,148.779709 
	C133.068222,152.670792 124.715508,154.749557 116.705765,157.348038 
	C115.581680,157.712708 113.536476,156.805038 112.564453,155.836914 
	C97.453072,140.786026 82.531441,125.543907 67.354172,110.560524 
	C64.027527,107.276390 66.133453,104.313187 66.993095,101.415634 
	C72.017654,84.479599 81.285278,69.928856 93.124664,57.020889 
	C110.674896,37.886658 131.047272,22.810236 156.729095,16.732714 
	C164.990784,14.777604 173.977997,14.062940 182.397339,14.970273 
	C201.305908,17.008011 210.888794,28.857676 212.871231,47.095772 
	C214.693176,63.857410 208.636307,78.873009 200.915344,93.272034 
	C198.599030,97.591805 195.633453,101.563431 192.572449,106.181770 
	C187.426270,106.830818 182.645523,107.380333 177.927307,107.046425 
	C173.122314,106.706375 172.114319,108.691322 172.202179,113.011444 
	C172.314835,118.550797 171.707413,124.104782 171.410217,129.652466 
z"/>
<path fill="#0AF9F8" opacity="1.000000" stroke="none" 
	d="
M171.400467,130.117523 
	C171.707413,124.104782 172.314835,118.550797 172.202179,113.011444 
	C172.114319,108.691322 173.122314,106.706375 177.927307,107.046425 
	C182.645523,107.380333 187.426270,106.830818 192.566864,106.556526 
	C210.390518,106.438263 227.827560,106.513031 245.262589,106.359238 
	C248.783615,106.328178 250.027100,107.566948 249.886795,110.964813 
	C249.743118,114.443764 249.933853,117.936531 249.989777,122.342667 
	C249.864517,132.579437 249.727707,141.896774 249.461975,151.499435 
	C249.283752,152.197678 249.234467,152.610626 248.903534,153.267990 
	C247.639191,158.424576 246.656509,163.336746 245.556473,168.528992 
	C245.391830,169.209183 245.344543,169.609299 244.996552,170.239151 
	C242.265808,180.593018 239.729630,190.693130 237.432587,200.847351 
	C234.556259,213.562134 231.876343,226.321335 229.011230,239.442612 
	C227.259735,247.105255 225.678802,254.403488 223.937714,261.663300 
	C222.221283,268.820221 222.149231,268.762329 214.558228,268.929932 
	C212.945282,268.965546 211.341553,269.418274 209.733566,269.678833 
	C203.910141,269.652924 198.085449,269.544617 192.263748,269.632721 
	C188.895538,269.683716 187.818451,268.486633 188.652252,265.089508 
	C193.771027,244.234299 198.910141,223.382248 203.765808,202.464905 
	C207.203934,187.654236 210.202713,172.741608 213.409637,157.877090 
	C213.618378,156.909470 213.930130,155.964050 214.510742,154.391876 
	C216.270020,148.959366 217.712540,144.143280 219.408493,138.481049 
	C211.744492,138.481049 205.291351,138.376480 198.844391,138.530365 
	C196.103851,138.595779 193.376236,139.202530 190.642746,139.563278 
	C186.356735,139.560074 182.070724,139.564392 177.784729,139.551880 
	C171.715927,139.534149 171.419296,139.227524 171.393768,133.055557 
	C171.390366,132.231247 171.391617,131.406921 171.400467,130.117523 
z"/>
<path fill="#040404" opacity="1.000000" stroke="none" 
	d="
M15.136784,175.140350 
	C21.362305,156.117035 34.104645,143.051300 49.838512,133.041321 
	C64.509567,147.397461 78.883270,161.462616 93.660141,175.922287 
	C80.910530,192.373978 66.870979,206.313828 45.542664,209.903488 
	C40.891586,210.686279 35.842049,211.315140 31.339264,210.339096 
	C19.156662,207.698410 12.726104,198.780167 13.268521,186.304703 
	C13.425407,182.696335 14.446209,179.125534 15.136784,175.140350 
z"/>
<path fill="#030505" opacity="1.000000" stroke="none" 
	d="
M245.297256,170.009399 
	C245.344543,169.609299 245.391830,169.209183 245.843567,168.344238 
	C247.227051,162.927444 248.206100,157.975494 249.185181,153.023560 
	C249.234467,152.610626 249.283752,152.197678 249.786987,151.299835 
	C250.679306,141.945053 251.117676,133.075165 251.546417,124.400055 
	C256.594299,123.812881 261.264923,123.269592 265.935516,122.726303 
	C266.880035,123.687126 268.632324,124.636124 268.646576,125.610558 
	C268.826752,137.917343 269.550537,150.296982 268.485992,162.514282 
	C267.705933,171.466492 264.414337,180.188431 262.381042,189.044922 
	C255.517136,218.942505 248.686508,248.847824 241.923294,278.768280 
	C241.001465,282.846497 239.754684,285.278015 234.583054,284.835449 
	C226.987000,284.185303 219.288589,284.505585 211.643738,284.738617 
	C207.285172,284.871490 206.500473,283.420837 207.966293,279.503418 
	C209.032227,276.654694 209.366333,273.532104 209.880157,270.105225 
	C211.341553,269.418274 212.945282,268.965546 214.558228,268.929932 
	C222.149231,268.762329 222.221283,268.820221 223.937714,261.663300 
	C225.678802,254.403488 227.259735,247.105255 229.286377,239.204742 
	C230.001984,237.828735 230.473740,237.103226 230.662643,236.310333 
	C234.395447,220.642761 238.190155,204.988876 241.755920,189.283096 
	C243.200867,182.918579 244.132202,176.437454 245.297256,170.009399 
z"/>
<path fill="#060D0F" opacity="1.000000" stroke="none" 
	d="
M190.844604,140.032593 
	C193.376236,139.202530 196.103851,138.595779 198.844391,138.530365 
	C205.291351,138.376480 211.744492,138.481049 219.408493,138.481049 
	C217.712540,144.143280 216.270020,148.959366 214.564148,154.013855 
	C206.772278,154.252258 199.243774,154.252258 191.046448,154.252258 
	C191.046448,149.253601 191.046448,144.877762 190.844604,140.032593 
z"/>
<path fill="#1F5657" opacity="1.000000" stroke="none" 
	d="
M265.591217,122.524765 
	C261.264923,123.269592 256.594299,123.812881 251.546417,124.400055 
	C251.117676,133.075165 250.679306,141.945053 249.915924,151.014526 
	C249.727707,141.896774 249.864517,132.579437 250.079269,122.826355 
	C255.187119,122.368164 260.217010,122.345703 265.591217,122.524765 
z"/>
<path fill="#1F5657" opacity="1.000000" stroke="none" 
	d="
M244.996552,170.239151 
	C244.132202,176.437454 243.200867,182.918579 241.755920,189.283096 
	C238.190155,204.988876 234.395447,220.642761 230.662643,236.310333 
	C230.473740,237.103226 230.001984,237.828735 229.386780,238.823486 
	C231.876343,226.321335 234.556259,213.562134 237.432587,200.847351 
	C239.729630,190.693130 242.265808,180.593018 244.996552,170.239151 
z"/>
<path fill="#1F5657" opacity="1.000000" stroke="none" 
	d="
M248.903519,153.267990 
	C248.206100,157.975494 247.227051,162.927444 245.960907,168.064148 
	C246.656509,163.336746 247.639191,158.424576 248.903519,153.267990 
z"/>
</svg>