<svg version="1.1" id="Layer_1" xmlns="http://www.w3.org/2000/svg" xmlns:xlink="http://www.w3.org/1999/xlink" x="0px" y="0px"
	 width="100%" viewBox="0 0 273 263" enable-background="new 0 0 273 263" xml:space="preserve">
<path fill="#707782" opacity="1.000000" stroke="none" 
	d="
M1.000001,254.000000 
	C1.000000,172.979111 1.000000,91.958206 1.292992,10.438311 
	C1.971319,9.867191 2.356653,9.795074 2.816922,10.205141 
	C2.902191,90.111595 2.914874,169.535858 2.908126,248.960129 
	C2.907972,250.783127 2.688275,252.606110 2.295930,254.416443 
	C1.680585,254.269180 1.340294,254.134583 1.000001,254.000000 
z"/>
<path fill="#6D6F7D" opacity="1.000000" stroke="none" 
	d="
M274.000000,10.000003 
	C274.000000,91.020897 274.000000,172.041794 273.747131,253.643219 
	C273.134796,254.263138 272.775269,254.302521 272.259216,254.023132 
	C272.039307,253.476456 271.975891,253.248550 271.959717,252.552719 
	C272.024994,173.597336 272.040833,95.109901 272.071808,16.622473 
	C272.072723,14.295839 272.232849,11.969268 272.607910,9.648426 
	C273.264679,9.769458 273.632355,9.884731 274.000000,10.000003 
z"/>
<path fill="#A9ABB6" opacity="1.000000" stroke="none" 
	d="
M264.000000,264.000000 
	C179.645767,264.000000 95.291542,264.000000 10.474550,263.694397 
	C10.058316,263.190460 10.104848,262.992096 10.606451,262.743622 
	C17.057049,262.729523 23.052567,262.795349 29.048103,262.797028 
	C107.326851,262.818604 185.605591,262.831085 263.924561,263.133301 
	C263.976532,263.613770 263.988251,263.806885 264.000000,264.000000 
z"/>
<path fill="#797E89" opacity="1.000000" stroke="none" 
	d="
M10.000000,1.000000 
	C94.354225,1.000000 178.708450,1.000000 263.665161,1.169378 
	C264.267670,1.338756 264.241180,1.769673 263.765717,1.880752 
	C182.602386,1.997200 101.914505,2.005797 21.226635,1.997891 
	C17.407518,1.997517 13.588418,1.850685 9.753149,1.556983 
	C9.736987,1.341906 10.000000,1.000000 10.000000,1.000000 
z"/>
<path fill="#E7EAEB" opacity="1.000000" stroke="none" 
	d="
M264.486572,264.000000 
	C263.988251,263.806885 263.976532,263.613770 264.131287,263.028198 
	C264.578766,262.281830 264.859833,261.927979 265.506592,261.510010 
	C268.053436,259.077911 270.234589,256.709900 272.415771,254.341888 
	C272.775269,254.302521 273.134796,254.263138 273.747131,254.111877 
	C274.000000,257.252472 274.000000,260.504913 274.000000,264.000000 
	C270.993408,264.000000 267.983246,264.000000 264.486572,264.000000 
z"/>
<path fill="#E2E7EA" opacity="1.000000" stroke="none" 
	d="
M10.151380,262.793732 
	C10.104848,262.992096 10.058316,263.190460 10.005892,263.694397 
	C7.076724,264.000000 4.153447,264.000000 1.000000,264.000000 
	C1.000000,260.993164 1.000000,257.983154 1.000001,254.486572 
	C1.340294,254.134583 1.680585,254.269180 2.490697,254.697342 
	C4.506367,258.376190 6.306615,261.527039 10.151380,262.793732 
z"/>
<path fill="#EFF0F3" opacity="1.000000" stroke="none" 
	d="
M264.241180,1.769674 
	C264.241180,1.769673 264.267670,1.338756 264.133850,1.169378 
	C267.246460,1.000000 270.492950,1.000000 274.000000,1.000000 
	C274.000000,3.669701 274.000000,6.343802 274.000000,9.508955 
	C273.632355,9.884731 273.264679,9.769458 272.552216,9.282488 
	C269.552002,6.530421 266.896576,4.150048 264.241180,1.769674 
z"/>
<path fill="#E9ECEF" opacity="1.000000" stroke="none" 
	d="
M9.508951,1.000000 
	C10.000000,1.000000 9.736987,1.341906 9.439198,1.676927 
	C6.342127,4.029448 2.814608,5.442581 2.741988,9.722959 
	C2.356653,9.795074 1.971319,9.867191 1.292992,9.969654 
	C1.000000,7.082645 1.000000,4.165290 1.000000,1.000000 
	C3.670005,1.000000 6.343954,1.000000 9.508951,1.000000 
z"/>
<path fill="#3C4355" opacity="1.000000" stroke="none" 
	d="
M2.816922,10.205141 
	C2.814608,5.442581 6.342127,4.029448 9.455360,1.892003 
	C13.588418,1.850685 17.407518,1.997517 21.226635,1.997891 
	C101.914505,2.005797 182.602386,1.997200 263.765717,1.880753 
	C266.896576,4.150048 269.552002,6.530421 272.263062,9.276731 
	C272.232849,11.969268 272.072723,14.295839 272.071808,16.622473 
	C272.040833,95.109901 272.024994,173.597336 271.623779,252.624146 
	C269.897400,254.477524 268.371033,255.655823 267.266571,257.146667 
	C266.309570,258.438446 265.830963,260.084595 265.140900,261.574127 
	C264.859833,261.927979 264.578766,262.281830 264.091034,262.740784 
	C185.605591,262.831085 107.326851,262.818604 29.048103,262.797028 
	C23.052567,262.795349 17.057049,262.729523 10.606451,262.743622 
	C6.306615,261.527039 4.506367,258.376190 2.765751,254.709991 
	C2.688275,252.606110 2.907972,250.783127 2.908126,248.960129 
	C2.914874,169.535858 2.902191,90.111595 2.816922,10.205141 
M29.585104,150.624573 
	C25.274689,150.234787 20.965714,149.823608 16.648647,149.532471 
	C16.473652,149.520691 16.222235,150.642151 15.391825,151.420334 
	C15.185045,151.365555 14.978265,151.310760 14.430692,150.817307 
	C13.015035,148.724655 11.728899,147.675812 10.446053,151.765091 
	C10.675484,152.768188 10.904915,153.771286 11.220500,155.564774 
	C14.336340,164.048431 17.519663,172.508102 20.548916,181.022552 
	C23.537893,189.423813 26.432781,197.859879 29.258429,206.317596 
	C33.860134,220.091400 38.457104,233.868240 42.845486,247.710556 
	C43.664722,250.294708 44.866955,251.085464 47.416889,251.011307 
	C52.730640,250.856720 58.056175,250.826889 63.368156,251.005280 
	C66.199554,251.100372 67.384850,250.051910 68.218613,247.327698 
	C70.095139,241.196381 72.505936,235.230728 74.596008,229.162079 
	C77.135689,221.787994 79.569115,214.377319 82.586502,206.556610 
	C83.539337,205.048889 84.801735,203.652344 85.390205,202.013763 
	C87.660835,195.691315 89.856850,189.333878 91.790863,182.902313 
	C92.720360,179.811234 93.003616,176.525833 93.378769,173.105392 
	C93.378769,173.105392 93.514114,172.837555 94.311455,172.827621 
	C95.047531,171.829590 96.019775,170.928711 96.477455,169.816162 
	C98.162460,165.720154 99.538834,161.494339 101.294891,157.431274 
	C103.007202,153.469437 101.302269,149.508011 96.934723,149.352692 
	C91.190025,149.148376 85.406685,149.707321 79.656517,150.152130 
	C77.605095,150.310837 77.597435,150.697266 78.703369,153.702438 
	C70.800423,178.697006 62.897476,203.691574 55.032646,228.565598 
	C54.965870,227.986298 54.993385,227.146210 54.762978,226.384109 
	C49.116402,207.706955 43.534908,189.009171 37.716080,170.385620 
	C36.006775,164.914886 33.610538,159.658798 31.579033,153.708557 
	C31.033833,152.894608 30.488630,152.080643 29.585104,150.624573 
M12.562332,32.346416 
	C15.667422,32.573048 18.769934,32.846924 21.878132,33.016609 
	C28.638174,33.385654 35.401119,33.701550 42.353985,34.492085 
	C42.353985,34.492085 42.142284,34.935738 41.518616,35.516548 
	C41.343323,36.313374 41.015846,37.110008 41.014832,37.907055 
	C40.983925,62.102684 40.968094,86.298401 41.032265,110.493881 
	C41.035435,111.690849 41.779255,112.885841 42.452206,114.770332 
	C42.359245,115.492737 42.266285,116.215149 41.858383,117.150764 
	C41.780285,117.247581 41.619183,117.407593 41.637184,117.431244 
	C41.784367,117.624550 41.964951,117.792427 42.618183,118.572899 
	C49.600895,118.904663 56.583603,119.236427 64.202690,119.778809 
	C65.099625,119.227089 65.996559,118.675369 67.488106,117.495483 
	C67.657150,116.696121 67.973053,115.896919 67.973938,115.097374 
	C68.001991,89.912445 68.014763,64.727448 67.954796,39.542637 
	C67.951881,38.323044 67.268570,37.105072 66.814705,35.304668 
	C66.824821,34.913361 66.834930,34.522053 67.694458,33.927135 
	C76.130333,33.620579 84.566216,33.314022 93.807701,32.977222 
	C94.858177,31.954693 96.737663,30.991425 96.815720,29.899389 
	C97.155052,25.152273 97.115486,20.359470 96.849129,15.603683 
	C96.797142,14.675484 95.124153,13.838074 93.702866,12.970156 
	C93.337608,12.930621 93.081871,12.742333 92.518448,11.650587 
	C91.747307,11.412566 90.976479,10.967717 90.204979,10.966548 
	C66.264572,10.930239 42.324028,10.917224 18.383865,11.002238 
	C17.290443,11.006122 16.200373,11.952909 14.326740,12.831921 
	C13.693236,14.131928 12.589217,15.405015 12.513009,16.736908 
	C12.268414,21.011763 12.403792,25.308357 12.107510,30.249243 
	C12.094312,30.720657 12.081114,31.192074 12.562332,32.346416 
M159.197815,250.528305 
	C159.470886,247.746826 159.962509,244.966995 159.983307,242.183624 
	C160.200867,213.098419 160.353195,184.012665 160.437149,154.926819 
	C160.438950,154.301865 159.414749,153.673935 158.487442,152.904129 
	C158.487442,152.904129 158.103470,152.766998 157.590408,152.064850 
	C152.653915,151.953110 147.714172,151.708099 142.783340,151.828506 
	C141.630173,151.856644 140.507248,153.123428 138.740646,153.982513 
	C129.545044,161.130188 120.310104,168.228867 111.229836,175.520172 
	C110.517174,176.092422 110.304176,178.386581 110.855232,179.227951 
	C112.546982,181.811005 114.853317,183.982269 116.675652,186.491608 
	C118.537033,189.054703 119.718971,189.535645 122.303932,186.844788 
	C126.140953,182.850510 130.737564,179.585907 135.629898,176.080063 
	C136.362259,176.427780 137.094635,176.775497 137.788788,177.800552 
	C137.800003,178.478745 137.811218,179.156937 137.122742,180.178375 
	C136.863022,180.587189 136.377853,180.994904 136.375870,181.404984 
	C136.267456,203.802429 136.165482,226.200150 136.228760,248.597382 
	C136.231903,249.710968 137.709656,251.781265 138.496948,251.779404 
	C144.667435,251.764908 150.837006,251.352844 157.472351,250.827805 
	C157.813583,250.810074 158.154831,250.792343 159.197815,250.528305 
M133.917679,12.246646 
	C133.050385,11.505402 132.201920,10.148945 131.312790,10.121755 
	C125.070671,9.930861 118.817924,9.940838 112.576103,10.132056 
	C112.002785,10.149618 111.482063,11.884133 110.879929,13.457396 
	C110.692657,14.279361 110.505379,15.101325 109.943237,16.140171 
	C109.865425,16.259260 109.696823,16.450712 109.724640,16.485600 
	C109.895782,16.700325 110.111282,16.879702 110.626869,17.953949 
	C110.531303,23.626028 110.435738,29.298105 109.619011,35.079117 
	C109.170509,35.596355 108.722008,36.113594 108.273499,36.630829 
	C108.962044,37.096951 109.650597,37.563072 110.631187,38.925343 
	C110.531937,46.273335 110.432678,53.621323 109.588348,61.098312 
	C106.971992,62.960018 107.635468,64.191483 110.618744,65.642372 
	C110.524200,66.069511 110.429665,66.496658 109.953461,67.139305 
	C110.081085,67.450226 110.208717,67.761154 110.623444,68.963669 
	C110.527618,75.632332 110.431801,82.301003 109.591675,89.095428 
	C107.071533,90.916267 107.418213,92.208214 110.615524,93.923660 
	C110.520378,100.923271 110.425232,107.922882 109.950539,115.141403 
	C110.080124,115.452484 110.209709,115.763573 110.632156,116.614822 
	C111.115387,117.667580 111.598618,118.720337 111.782471,120.320595 
	C111.983086,120.879013 112.177475,121.922569 112.385216,121.925240 
	C118.348000,122.001801 124.315315,122.067238 130.272644,121.863716 
	C131.179077,121.832741 132.040207,120.476364 133.174088,119.313522 
	C133.442444,119.098068 133.748184,119.003670 134.724533,119.175232 
	C135.152588,118.327339 135.953415,117.480103 135.954926,116.631439 
	C136.014267,83.382515 136.024017,50.133389 135.909195,16.884735 
	C135.904755,15.598460 134.612473,14.316634 133.987427,13.010918 
	C133.987427,13.010918 133.963867,13.077477 133.917679,12.246646 
M180.049850,28.055702 
	C179.375214,29.705791 178.700577,31.355883 177.553543,32.692104 
	C175.045227,33.447025 174.097168,38.071030 175.902664,40.827560 
	C175.902664,40.827560 175.505630,40.999462 174.709885,41.091053 
	C173.668320,42.659195 172.455643,44.143066 171.630707,45.817905 
	C170.705490,47.696327 170.231430,49.791744 169.384033,51.714741 
	C167.216965,56.632389 164.641068,61.394192 162.815781,66.431084 
	C161.105255,71.151237 160.282990,76.186829 158.771866,80.989861 
	C158.348511,82.335495 158.717865,85.716743 155.309036,83.784988 
	C155.036865,84.748413 154.235840,86.172165 154.595642,86.585518 
	C155.526276,87.654686 156.968964,88.278160 158.237396,89.860054 
	C155.712875,98.237106 154.063843,106.983582 147.995377,114.517326 
	C148.340164,115.011986 148.684952,115.506653 148.959625,116.855507 
	C149.734863,117.722397 150.487701,119.316277 151.288895,119.340950 
	C157.592712,119.535118 163.914215,119.594154 170.208755,119.273170 
	C171.430740,119.210861 173.187439,117.517166 173.621918,116.216652 
	C175.554886,110.430473 176.990738,104.479683 178.853088,98.667473 
	C179.334946,97.163628 180.710770,95.946243 182.237152,95.319298 
	C184.497742,95.568779 186.753311,95.965477 189.019760,96.042465 
	C199.257965,96.390236 209.499268,96.647537 220.170013,97.526367 
	C222.473862,104.308411 224.714478,111.113541 227.169495,117.840424 
	C227.445847,118.597649 228.925949,119.346375 229.861343,119.363548 
	C236.812485,119.491104 243.767014,119.432755 252.250015,119.432755 
	C248.954910,110.452560 245.931473,102.381340 243.034958,94.264816 
	C240.782120,87.952019 238.687454,81.582764 237.159821,74.738571 
	C238.353912,70.201904 234.408035,60.656509 230.165985,58.313938 
	C228.699600,54.148098 227.117584,50.018719 225.790298,45.809025 
	C222.780991,36.264648 219.897156,26.680717 216.953583,16.287350 
	C217.476181,12.468738 215.822998,9.694128 212.362244,8.438969 
	C209.299271,7.328076 206.018372,6.729945 202.785507,6.198631 
	C199.038498,5.582819 192.697586,9.214028 191.551682,12.164453 
	C191.292267,11.979811 191.077698,11.752820 190.275879,10.587379 
	C189.155487,10.468895 187.989182,10.089511 186.922668,10.277207 
	C182.371719,11.078125 178.266724,21.556082 180.049850,28.055702 
M209.998932,251.755814 
	C218.974518,252.107178 227.708984,252.190689 236.302414,248.140625 
	C252.425461,240.541870 256.979462,219.693375 245.909164,206.738632 
	C242.897354,203.214111 238.754242,200.656372 234.813400,197.392441 
	C236.368896,196.161453 237.877655,194.918213 239.436630,193.741501 
	C252.004105,184.255615 251.850616,169.826584 243.367157,160.673157 
	C230.183258,146.448013 205.320648,146.496017 192.251907,160.098572 
	C183.992233,168.695633 184.064438,184.284912 192.193970,191.137497 
	C194.764069,193.303894 197.269135,195.547440 200.110489,198.022705 
	C196.644440,200.237289 194.258606,201.717743 191.917389,203.265701 
	C184.388214,208.243820 180.265976,223.722702 183.626190,232.009171 
	C188.356888,243.675385 197.331604,249.367966 209.998932,251.755814 
M154.488037,89.558121 
	C154.488037,89.558121 154.447891,89.480331 154.488037,89.558121 
z"/>
<path fill="#373F4B" opacity="1.000000" stroke="none" 
	d="
M265.506592,261.510010 
	C265.830963,260.084595 266.309570,258.438446 267.266571,257.146667 
	C268.371033,255.655823 269.897400,254.477524 271.576538,253.092087 
	C271.975891,253.248550 272.039307,253.476456 272.259216,254.023117 
	C270.234589,256.709900 268.053436,259.077911 265.506592,261.510010 
z"/>
<path fill="#F7F8F8" opacity="1.000000" stroke="none" 
	d="
M175.505630,40.999462 
	C175.505630,40.999462 175.902664,40.827560 176.183319,40.389606 
	C176.984634,37.636425 177.505295,35.321201 178.025970,33.005974 
	C178.700577,31.355883 179.375214,29.705791 180.414261,27.535509 
	C181.436340,24.967682 182.198959,22.946852 182.730118,20.866913 
	C183.886826,16.337484 185.120071,11.946896 190.908005,11.483480 
	C191.077698,11.752820 191.292267,11.979811 192.053360,12.235111 
	C194.364761,12.225042 196.174484,12.144314 198.242783,12.134477 
	C198.673584,12.157564 198.845825,12.109760 199.470215,12.172295 
	C205.790985,13.227285 213.018265,9.378858 216.962311,17.112867 
	C219.897156,26.680717 222.780991,36.264648 225.790298,45.809025 
	C227.117584,50.018719 228.699600,54.148098 230.117615,58.795174 
	C232.220306,64.597145 234.371399,69.917877 236.522491,75.238602 
	C238.687454,81.582764 240.782120,87.952019 243.034958,94.264816 
	C245.931473,102.381340 248.954910,110.452560 252.250015,119.432755 
	C243.767014,119.432755 236.812485,119.491104 229.861343,119.363548 
	C228.925949,119.346375 227.445847,118.597649 227.169495,117.840424 
	C224.714478,111.113541 222.473862,104.308411 219.978302,96.754799 
	C218.945938,95.407616 218.105194,94.331551 217.264694,94.331749 
	C205.401764,94.334557 193.538864,94.483643 181.675964,94.597275 
	C180.710770,95.946243 179.334946,97.163628 178.853088,98.667473 
	C176.990738,104.479683 175.554886,110.430473 173.621918,116.216652 
	C173.187439,117.517166 171.430740,119.210861 170.208755,119.273170 
	C163.914215,119.594154 157.592712,119.535118 151.288895,119.340950 
	C150.487701,119.316277 149.734863,117.722397 149.214493,116.262619 
	C149.009918,115.081680 148.550476,114.493629 148.091034,113.905579 
	C154.063843,106.983582 155.712875,98.237106 158.447906,89.212097 
	C159.432938,86.914597 160.367004,85.319992 160.956833,83.606865 
	C165.842468,69.416801 170.664429,55.204819 175.505630,40.999462 
M187.145355,70.288841 
	C187.271210,72.111450 187.348206,75.522896 187.529953,75.528488 
	C196.049133,75.790581 204.577408,75.756676 214.251450,75.756676 
	C212.672089,73.243187 211.874084,71.973206 211.159424,69.987175 
	C210.497269,68.011078 209.835098,66.034981 209.873886,63.769840 
	C209.868561,62.816826 210.091873,61.792755 209.821274,60.922192 
	C207.892426,54.716450 205.794189,48.563053 203.890793,42.349819 
	C202.742447,38.601299 201.847076,34.775280 200.838043,30.984079 
	C200.420288,31.103012 200.002548,31.221945 199.584793,31.340878 
	C195.623428,44.167332 191.662064,56.993786 187.145355,70.288841 
z"/>
<path fill="#8BB5F5" opacity="1.000000" stroke="none" 
	d="
M209.557922,251.696075 
	C197.331604,249.367966 188.356888,243.675385 183.626190,232.009171 
	C180.265976,223.722702 184.388214,208.243820 191.917389,203.265701 
	C194.258606,201.717743 196.644440,200.237289 200.110489,198.022705 
	C197.269135,195.547440 194.764069,193.303894 192.193970,191.137497 
	C184.064438,184.284912 183.992233,168.695633 192.251907,160.098572 
	C205.320648,146.496017 230.183258,146.448013 243.367157,160.673157 
	C251.850616,169.826584 252.004105,184.255615 239.436630,193.741501 
	C237.877655,194.918213 236.368896,196.161453 234.813400,197.392441 
	C238.754242,200.656372 242.897354,203.214111 245.909164,206.738632 
	C256.979462,219.693375 252.425461,240.541870 236.302414,248.140625 
	C227.708984,252.190689 218.974518,252.107178 209.557922,251.696075 
M231.671509,223.970352 
	C230.482132,219.913177 230.016953,215.425659 227.924789,211.904938 
	C225.147568,207.231323 216.611282,205.582458 211.685501,207.744980 
	C204.586578,210.861557 201.708847,217.738571 203.563858,227.153580 
	C204.536179,232.088623 210.284546,236.936066 215.590820,237.295547 
	C223.085220,237.803299 227.133041,234.591324 231.671509,223.970352 
M226.862167,169.880585 
	C219.338425,163.520874 215.833633,163.203568 210.085175,168.361710 
	C206.403976,171.664886 205.190399,179.860687 207.698318,184.481171 
	C211.097321,190.743393 220.003220,192.218735 225.030075,187.352325 
	C229.578049,182.949524 230.242218,177.875717 226.862167,169.880585 
z"/>
<path fill="#8CB7F6" opacity="1.000000" stroke="none" 
	d="
M82.048515,206.982468 
	C79.569115,214.377319 77.135689,221.787994 74.596008,229.162079 
	C72.505936,235.230728 70.095139,241.196381 68.218613,247.327698 
	C67.384850,250.051910 66.199554,251.100372 63.368156,251.005280 
	C58.056175,250.826889 52.730640,250.856720 47.416889,251.011307 
	C44.866955,251.085464 43.664722,250.294708 42.845486,247.710556 
	C38.457104,233.868240 33.860134,220.091400 29.258429,206.317596 
	C26.432781,197.859879 23.537893,189.423813 20.548916,181.022552 
	C17.519663,172.508102 14.336340,164.048431 11.499992,154.934250 
	C18.362700,154.303925 24.945917,154.304138 31.529133,154.304337 
	C33.610538,159.658798 36.006775,164.914886 37.716080,170.385620 
	C43.534908,189.009171 49.116402,207.706955 54.762978,226.384109 
	C54.993385,227.146210 54.965870,227.986298 55.032646,228.565598 
	C62.897476,203.691574 70.800423,178.697006 79.095108,153.176636 
	C86.187820,152.650833 92.888779,152.650833 99.044472,152.650833 
	C97.120163,159.674881 95.317139,166.256226 93.514114,172.837555 
	C93.514114,172.837555 93.378769,173.105392 93.216545,173.464767 
	C90.886955,179.467819 88.520782,185.045197 86.610275,190.774536 
	C84.836815,196.092865 83.549751,201.573380 82.048515,206.982468 
z"/>
<path fill="#FBFBFB" opacity="1.000000" stroke="none" 
	d="
M63.566315,119.568192 
	C56.583603,119.236427 49.600895,118.904663 42.469929,118.015945 
	C42.272221,117.285172 42.222771,117.111359 42.173325,116.937553 
	C42.266285,116.215149 42.359245,115.492737 42.410175,113.959595 
	C42.382851,105.839645 42.432522,98.530289 42.405434,91.221222 
	C42.335896,72.459328 42.232281,53.697559 42.142288,34.935738 
	C42.142284,34.935738 42.353985,34.492085 42.389694,33.832031 
	C41.210136,32.506039 40.004276,31.284634 38.778072,31.263859 
	C30.514769,31.123859 22.247156,31.238419 13.816586,31.029644 
	C13.232347,30.391348 12.812460,29.993958 12.392574,29.596565 
	C12.403792,25.308357 12.268414,21.011763 12.513009,16.736908 
	C12.589217,15.405015 13.693236,14.131928 15.139034,12.723055 
	C41.612774,12.544557 67.274216,12.474924 92.935661,12.405291 
	C93.081871,12.742333 93.337608,12.930621 93.961876,13.435117 
	C94.157471,19.669807 94.094063,25.439535 93.560600,31.187031 
	C84.245003,31.351860 75.399460,31.538921 66.201385,31.587509 
	C65.457436,32.772820 64.725960,34.096306 64.724815,35.420422 
	C64.702087,61.771488 64.786850,88.122658 64.754700,114.473679 
	C64.752625,116.172333 63.980324,117.870041 63.566315,119.568192 
z"/>
<path fill="#F7F8F8" opacity="1.000000" stroke="none" 
	d="
M110.340172,34.970184 
	C110.435738,29.298105 110.531303,23.626028 110.568336,17.225975 
	C110.445908,16.306429 110.382004,16.114859 110.318108,15.923289 
	C110.505379,15.101325 110.692657,14.279361 111.381241,13.137409 
	C119.242996,12.904108 126.603432,12.990793 133.963867,13.077478 
	C133.963867,13.077477 133.987427,13.010918 133.988068,13.487270 
	C134.022919,48.985859 134.057098,84.008095 134.091293,119.030327 
	C133.748184,119.003670 133.442444,119.098068 132.592896,119.427887 
	C125.368431,119.619194 118.725143,119.696144 112.081856,119.773087 
	C111.598618,118.720337 111.115387,117.667580 110.582733,116.055855 
	C110.465569,115.305428 110.397820,115.113960 110.330078,114.922493 
	C110.425232,107.922882 110.520378,100.923271 110.596306,93.082993 
	C110.496719,91.151436 110.416344,90.060555 110.335968,88.969666 
	C110.431801,82.301003 110.527618,75.632332 110.576935,68.230667 
	C110.465332,67.306366 110.400223,67.115082 110.335121,66.923798 
	C110.429665,66.496658 110.524200,66.069511 110.609711,64.941833 
	C110.511589,63.150631 110.422508,62.059971 110.333427,60.969315 
	C110.432678,53.621323 110.531937,46.273335 110.614235,38.105556 
	C110.511574,36.513908 110.425873,35.742046 110.340172,34.970184 
z"/>
<path fill="#8DB9FA" opacity="1.000000" stroke="none" 
	d="
M135.010864,176.010712 
	C130.737564,179.585907 126.140953,182.850510 122.303932,186.844788 
	C119.718971,189.535645 118.537033,189.054703 116.675652,186.491608 
	C114.853317,183.982269 112.546982,181.811005 110.855232,179.227951 
	C110.304176,178.386581 110.517174,176.092422 111.229836,175.520172 
	C120.310104,168.228867 129.545044,161.130188 139.570129,153.951035 
	C145.603485,154.275589 150.807327,154.631638 156.008514,155.438004 
	C156.002792,186.591202 155.999725,217.294067 155.559753,248.000000 
	C149.452286,248.006775 143.781693,248.010483 138.082367,247.545441 
	C138.030624,243.755142 137.996490,240.433655 137.986420,237.112091 
	C137.928589,218.019775 137.876480,198.927444 137.822433,179.835129 
	C137.811218,179.156937 137.800003,178.478745 137.913971,177.105164 
	C137.662964,175.442093 137.286774,174.474396 136.910568,173.506714 
	C136.277328,174.341385 135.644089,175.176056 135.010864,176.010712 
z"/>
<path fill="#95BDF7" opacity="1.000000" stroke="none" 
	d="
M155.996658,247.996948 
	C155.999725,217.294067 156.002792,186.591202 156.339508,155.376038 
	C157.149918,154.164841 157.626694,153.465912 158.103470,152.766998 
	C158.103470,152.766998 158.487442,152.904129 158.595215,153.434662 
	C158.674286,183.335526 158.653839,212.705872 158.598465,242.076172 
	C158.594742,244.048706 158.326752,246.020752 157.908890,247.999603 
	C157.089630,248.003098 156.543152,248.000015 155.996658,247.996948 
z"/>
<path fill="#2D3342" opacity="1.000000" stroke="none" 
	d="
M134.407913,119.102783 
	C134.057098,84.008095 134.022919,48.985859 133.954498,13.498180 
	C134.612473,14.316634 135.904755,15.598460 135.909195,16.884735 
	C136.024017,50.133389 136.014267,83.382515 135.954926,116.631439 
	C135.953415,117.480103 135.152588,118.327339 134.407913,119.102783 
z"/>
<path fill="#767C88" opacity="1.000000" stroke="none" 
	d="
M63.884506,119.673500 
	C63.980324,117.870041 64.752625,116.172333 64.754700,114.473679 
	C64.786850,88.122658 64.702087,61.771488 64.724815,35.420422 
	C64.725960,34.096306 65.457436,32.772820 66.195618,31.993176 
	C66.643272,33.068455 66.744156,33.599602 66.845039,34.130745 
	C66.834930,34.522053 66.824821,34.913361 66.834518,36.076595 
	C66.867393,63.940231 66.880447,91.031937 66.893501,118.123642 
	C65.996559,118.675369 65.099625,119.227089 63.884506,119.673500 
z"/>
<path fill="#6E88B4" opacity="1.000000" stroke="none" 
	d="
M137.472595,180.006744 
	C137.876480,198.927444 137.928589,218.019775 137.986420,237.112091 
	C137.996490,240.433655 138.030624,243.755142 138.108124,247.957550 
	C139.945526,249.263611 141.708160,249.895660 143.515411,250.073166 
	C148.001709,250.513779 152.508362,250.746933 157.006851,251.063416 
	C150.837006,251.352844 144.667435,251.764908 138.496948,251.779404 
	C137.709656,251.781265 136.231903,249.710968 136.228760,248.597382 
	C136.165482,226.200150 136.267456,203.802429 136.375870,181.404984 
	C136.377853,180.994904 136.863022,180.587189 137.472595,180.006744 
z"/>
<path fill="#3A404F" opacity="1.000000" stroke="none" 
	d="
M175.107758,41.045258 
	C170.664429,55.204819 165.842468,69.416801 160.956833,83.606865 
	C160.367004,85.319992 159.432938,86.914597 158.432800,88.821869 
	C156.968964,88.278160 155.526276,87.654686 154.595642,86.585518 
	C154.235840,86.172165 155.036865,84.748413 155.309052,83.784988 
	C158.717865,85.716743 158.348511,82.335495 158.771866,80.989861 
	C160.282990,76.186829 161.105255,71.151237 162.815781,66.431084 
	C164.641068,61.394192 167.216965,56.632389 169.384033,51.714741 
	C170.231430,49.791744 170.705490,47.696327 171.630707,45.817905 
	C172.455643,44.143066 173.668320,42.659195 175.107758,41.045258 
z"/>
<path fill="#3E4E69" opacity="1.000000" stroke="none" 
	d="
M93.912788,172.832581 
	C95.317139,166.256226 97.120163,159.674881 99.044472,152.650833 
	C92.888779,152.650833 86.187820,152.650833 79.148109,152.811462 
	C77.597435,150.697266 77.605095,150.310837 79.656517,150.152130 
	C85.406685,149.707321 91.190025,149.148376 96.934723,149.352692 
	C101.302269,149.508011 103.007202,153.469437 101.294891,157.431274 
	C99.538834,161.494339 98.162460,165.720154 96.477455,169.816162 
	C96.019775,170.928711 95.047531,171.829590 93.912788,172.832581 
z"/>
<path fill="#383F4E" opacity="1.000000" stroke="none" 
	d="
M197.984207,12.063587 
	C196.174484,12.144314 194.364761,12.225042 192.289658,12.207102 
	C192.697586,9.214028 199.038498,5.582819 202.785507,6.198631 
	C206.018372,6.729945 209.299271,7.328076 212.362244,8.438969 
	C215.822998,9.694128 217.476181,12.468738 216.957947,16.700108 
	C213.018265,9.378858 205.790985,13.227285 199.367889,12.016563 
	C198.536987,11.854860 198.260605,11.959225 197.984207,12.063587 
z"/>
<path fill="#24354B" opacity="1.000000" stroke="none" 
	d="
M158.181656,247.993027 
	C158.326752,246.020752 158.594742,244.048706 158.598465,242.076172 
	C158.653839,212.705872 158.674286,183.335526 158.786072,153.506287 
	C159.414749,153.673935 160.438950,154.301865 160.437149,154.926819 
	C160.353195,184.012665 160.200867,213.098419 159.983307,242.183624 
	C159.962509,244.966995 159.470886,247.746826 158.860413,250.295471 
	C158.409225,249.372757 158.295441,248.682892 158.181656,247.993027 
z"/>
<path fill="#041429" opacity="1.000000" stroke="none" 
	d="
M92.727051,12.027939 
	C67.274216,12.474924 41.612774,12.544557 15.530035,12.537362 
	C16.200373,11.952909 17.290443,11.006122 18.383865,11.002238 
	C42.324028,10.917224 66.264572,10.930239 90.204979,10.966548 
	C90.976479,10.967717 91.747307,11.412566 92.727051,12.027939 
z"/>
<path fill="#2C3343" opacity="1.000000" stroke="none" 
	d="
M67.190804,117.809570 
	C66.880447,91.031937 66.867393,63.940231 66.878220,36.367432 
	C67.268570,37.105072 67.951881,38.323044 67.954796,39.542637 
	C68.014763,64.727448 68.001991,89.912445 67.973938,115.097374 
	C67.973053,115.896919 67.657150,116.696121 67.190804,117.809570 
z"/>
<path fill="#21283B" opacity="1.000000" stroke="none" 
	d="
M41.830452,35.226143 
	C42.232281,53.697559 42.335896,72.459328 42.405434,91.221222 
	C42.432522,98.530289 42.382851,105.839645 42.273170,113.615311 
	C41.779255,112.885841 41.035435,111.690849 41.032265,110.493881 
	C40.968094,86.298401 40.983925,62.102684 41.014832,37.907055 
	C41.015846,37.110008 41.343323,36.313374 41.830452,35.226143 
z"/>
<path fill="#3E4E69" opacity="1.000000" stroke="none" 
	d="
M82.317513,206.769531 
	C83.549751,201.573380 84.836815,196.092865 86.610275,190.774536 
	C88.520782,185.045197 90.886955,179.467819 93.316925,173.576294 
	C93.003616,176.525833 92.720360,179.811234 91.790863,182.902313 
	C89.856850,189.333878 87.660835,195.691315 85.390205,202.013763 
	C84.801735,203.652344 83.539337,205.048889 82.317513,206.769531 
z"/>
<path fill="#10172A" opacity="1.000000" stroke="none" 
	d="
M181.956558,94.958282 
	C193.538864,94.483643 205.401764,94.334557 217.264694,94.331749 
	C218.105194,94.331551 218.945938,95.407616 219.763000,96.460335 
	C209.499268,96.647537 199.257965,96.390236 189.019760,96.042465 
	C186.753311,95.965477 184.497742,95.568779 181.956558,94.958282 
z"/>
<path fill="#2D3342" opacity="1.000000" stroke="none" 
	d="
M133.940765,12.662062 
	C126.603432,12.990793 119.242996,12.904108 111.409744,12.819402 
	C111.482063,11.884133 112.002785,10.149618 112.576103,10.132056 
	C118.817924,9.940838 125.070671,9.930861 131.312790,10.121755 
	C132.201920,10.148945 133.050385,11.505402 133.940765,12.662062 
z"/>
<path fill="#2C3141" opacity="1.000000" stroke="none" 
	d="
M94.030647,31.209265 
	C94.094063,25.439535 94.157471,19.669807 94.209862,13.429433 
	C95.124153,13.838074 96.797142,14.675484 96.849129,15.603683 
	C97.115486,20.359470 97.155052,25.152273 96.815720,29.899389 
	C96.737663,30.991425 94.858177,31.954693 93.501167,32.750648 
	C93.473305,32.085808 93.751976,31.647535 94.030647,31.209265 
z"/>
<path fill="#262B39" opacity="1.000000" stroke="none" 
	d="
M13.980938,31.270550 
	C22.247156,31.238419 30.514769,31.123859 38.778072,31.263859 
	C40.004276,31.284634 41.210136,32.506039 42.294144,33.605576 
	C35.401119,33.701550 28.638174,33.385654 21.878132,33.016609 
	C18.769934,32.846924 15.667422,32.573048 12.578210,32.070194 
	C13.056372,31.619499 13.518655,31.445024 13.980938,31.270550 
z"/>
<path fill="#252B39" opacity="1.000000" stroke="none" 
	d="
M93.560600,31.187031 
	C93.751976,31.647535 93.473305,32.085808 93.098358,32.765774 
	C84.566216,33.314022 76.130333,33.620579 67.269745,34.028938 
	C66.744156,33.599602 66.643272,33.068455 66.548149,32.131645 
	C75.399460,31.538921 84.245003,31.351860 93.560600,31.187031 
z"/>
<path fill="#383F4E" opacity="1.000000" stroke="none" 
	d="
M190.591949,11.035430 
	C185.120071,11.946896 183.886826,16.337484 182.730118,20.866913 
	C182.198959,22.946852 181.436340,24.967682 180.453064,27.212738 
	C178.266724,21.556082 182.371719,11.078125 186.922668,10.277207 
	C187.989182,10.089511 189.155487,10.468895 190.591949,11.035430 
z"/>
<path fill="#9FC3F5" opacity="1.000000" stroke="none" 
	d="
M31.554083,154.006439 
	C24.945917,154.304138 18.362700,154.303925 11.456915,154.539062 
	C10.904915,153.771286 10.675484,152.768188 11.094409,151.633606 
	C12.752338,151.420059 13.761910,151.337997 14.771483,151.255951 
	C14.978265,151.310760 15.185045,151.365555 16.129059,151.464783 
	C21.225338,151.428375 25.584385,151.347534 29.943430,151.266693 
	C30.488630,152.080643 31.033833,152.894608 31.554083,154.006439 
z"/>
<path fill="#2D3342" opacity="1.000000" stroke="none" 
	d="
M111.932159,120.046844 
	C118.725143,119.696144 125.368431,119.619194 132.467010,119.637634 
	C132.040207,120.476364 131.179077,121.832741 130.272644,121.863716 
	C124.315315,122.067238 118.348000,122.001801 112.385216,121.925240 
	C112.177475,121.922569 111.983086,120.879013 111.932159,120.046844 
z"/>
<path fill="#363C4B" opacity="1.000000" stroke="none" 
	d="
M236.841156,74.988586 
	C234.371399,69.917877 232.220306,64.597145 230.328339,59.057938 
	C234.408035,60.656509 238.353912,70.201904 236.841156,74.988586 
z"/>
<path fill="#9FC3F4" opacity="1.000000" stroke="none" 
	d="
M157.846939,152.415924 
	C157.626694,153.465912 157.149918,154.164841 156.342163,154.925720 
	C150.807327,154.631638 145.603485,154.275589 139.885025,153.869934 
	C140.507248,153.123428 141.630173,151.856644 142.783340,151.828506 
	C147.714172,151.708099 152.653915,151.953110 157.846939,152.415924 
z"/>
<path fill="#9EC4FA" opacity="1.000000" stroke="none" 
	d="
M157.908890,247.999603 
	C158.295441,248.682892 158.409225,249.372757 158.509552,250.418610 
	C158.154831,250.792343 157.813583,250.810074 157.239594,250.945618 
	C152.508362,250.746933 148.001709,250.513779 143.515411,250.073166 
	C141.708160,249.895660 139.945526,249.263611 138.136856,248.426300 
	C143.781693,248.010483 149.452286,248.006775 155.559753,248.000000 
	C156.543152,248.000015 157.089630,248.003098 157.908890,247.999603 
z"/>
<path fill="#2C3B52" opacity="1.000000" stroke="none" 
	d="
M29.764267,150.945633 
	C25.584385,151.347534 21.225338,151.428375 16.436357,151.372421 
	C16.222235,150.642151 16.473652,149.520691 16.648647,149.532471 
	C20.965714,149.823608 25.274689,150.234787 29.764267,150.945633 
z"/>
<path fill="#3A404F" opacity="1.000000" stroke="none" 
	d="
M177.789764,32.849041 
	C177.505295,35.321201 176.984634,37.636425 176.218506,40.176167 
	C174.097168,38.071030 175.045227,33.447025 177.789764,32.849041 
z"/>
<path fill="#2C3B52" opacity="1.000000" stroke="none" 
	d="
M14.601088,151.036621 
	C13.761910,151.337997 12.752338,151.420059 11.379036,151.371613 
	C11.728899,147.675812 13.015035,148.724655 14.601088,151.036621 
z"/>
<path fill="#6E88B4" opacity="1.000000" stroke="none" 
	d="
M135.320374,176.045395 
	C135.644089,175.176056 136.277328,174.341385 136.910568,173.506714 
	C137.286774,174.474396 137.662964,175.442093 137.933075,176.766495 
	C137.094635,176.775497 136.362259,176.427780 135.320374,176.045395 
z"/>
<path fill="#363A4A" opacity="1.000000" stroke="none" 
	d="
M109.963821,89.032547 
	C110.416344,90.060555 110.496719,91.151436 110.447250,92.635788 
	C107.418213,92.208214 107.071533,90.916267 109.963821,89.032547 
z"/>
<path fill="#363A4A" opacity="1.000000" stroke="none" 
	d="
M109.960892,61.033813 
	C110.422508,62.059971 110.511589,63.150631 110.472260,64.635651 
	C107.635468,64.191483 106.971992,62.960018 109.960892,61.033813 
z"/>
<path fill="#363A4A" opacity="1.000000" stroke="none" 
	d="
M109.979591,35.024651 
	C110.425873,35.742046 110.511574,36.513908 110.468216,37.657482 
	C109.650597,37.563072 108.962044,37.096951 108.273499,36.630829 
	C108.722008,36.113594 109.170509,35.596355 109.979591,35.024651 
z"/>
<path fill="#888E99" opacity="1.000000" stroke="none" 
	d="
M148.043213,114.211456 
	C148.550476,114.493629 149.009918,115.081680 149.249542,115.835526 
	C148.684952,115.506653 148.340164,115.011986 148.043213,114.211456 
z"/>
<path fill="#767C88" opacity="1.000000" stroke="none" 
	d="
M13.816586,31.029644 
	C13.518655,31.445024 13.056372,31.619499 12.331001,31.728729 
	C12.081114,31.192074 12.094312,30.720657 12.250042,29.922905 
	C12.812460,29.993958 13.232347,30.391348 13.816586,31.029644 
z"/>
<path fill="#21283B" opacity="1.000000" stroke="none" 
	d="
M42.015854,117.044159 
	C42.222771,117.111359 42.272221,117.285172 42.228527,117.713509 
	C41.964951,117.792427 41.784367,117.624550 41.637184,117.431244 
	C41.619183,117.407593 41.780285,117.247581 42.015854,117.044159 
z"/>
<path fill="#363A4A" opacity="1.000000" stroke="none" 
	d="
M110.140305,115.031952 
	C110.397820,115.113960 110.465569,115.305428 110.436310,115.785767 
	C110.209709,115.763573 110.080124,115.452484 110.140305,115.031952 
z"/>
<path fill="#363A4A" opacity="1.000000" stroke="none" 
	d="
M110.130676,16.031731 
	C110.382004,16.114859 110.445908,16.306429 110.410919,16.784420 
	C110.111282,16.879702 109.895782,16.700325 109.724640,16.485600 
	C109.696823,16.450712 109.865425,16.259260 110.130676,16.031731 
z"/>
<path fill="#363A4A" opacity="1.000000" stroke="none" 
	d="
M110.144287,67.031555 
	C110.400223,67.115082 110.465332,67.306366 110.433388,67.784866 
	C110.208717,67.761154 110.081085,67.450226 110.144287,67.031555 
z"/>
<path fill="#3A404F" opacity="1.000000" stroke="none" 
	d="
M154.467957,89.519226 
	C154.447891,89.480331 154.488037,89.558121 154.467957,89.519226 
z"/>
<path fill="#3D4456" opacity="1.000000" stroke="none" 
	d="
M209.172943,64.058876 
	C209.835098,66.034981 210.497269,68.011078 211.022522,70.758682 
	C210.427322,71.961891 209.976151,72.760674 209.509628,72.769737 
	C203.354004,72.889305 197.195282,72.952972 191.040405,72.849083 
	C190.419601,72.838600 189.818726,71.647346 189.568085,70.928947 
	C191.556824,67.567078 193.653595,64.419579 194.685547,60.954910 
	C195.745529,57.396255 195.547119,53.478413 196.373672,49.825062 
	C196.621033,48.731705 198.460236,47.998489 199.133820,47.453388 
	C199.027679,45.146439 198.924850,42.911049 198.822006,40.675663 
	C200.413803,40.891068 200.849670,41.205345 200.957642,41.607635 
	C202.664581,47.966099 204.211212,54.371292 206.100006,60.674252 
	C206.494644,61.991150 208.116577,62.940273 209.172943,64.058876 
z"/>
<path fill="#3E4251" opacity="1.000000" stroke="none" 
	d="
M209.523407,63.914360 
	C208.116577,62.940273 206.494644,61.991150 206.100006,60.674252 
	C204.211212,54.371292 202.664581,47.966099 200.957642,41.607635 
	C200.849670,41.205345 200.413803,40.891068 198.822006,40.675663 
	C198.924850,42.911049 199.027679,45.146439 199.133820,47.453388 
	C198.460236,47.998489 196.621033,48.731705 196.373672,49.825062 
	C195.547119,53.478413 195.745529,57.396255 194.685547,60.954910 
	C193.653595,64.419579 191.556824,67.567078 189.350830,70.688904 
	C188.416275,70.289406 188.058487,70.054825 187.700684,69.820244 
	C191.662064,56.993786 195.623428,44.167332 199.584793,31.340878 
	C200.002548,31.221945 200.420288,31.103012 200.838043,30.984079 
	C201.847076,34.775280 202.742447,38.601299 203.890793,42.349819 
	C205.794189,48.563053 207.892426,54.716450 209.821274,60.922192 
	C210.091873,61.792755 209.868561,62.816826 209.523407,63.914360 
z"/>
<path fill="#1A2132" opacity="1.000000" stroke="none" 
	d="
M187.423035,70.054543 
	C188.058487,70.054825 188.416275,70.289406 188.991333,70.764023 
	C189.818726,71.647346 190.419601,72.838600 191.040405,72.849083 
	C197.195282,72.952972 203.354004,72.889305 209.509628,72.769737 
	C209.976151,72.760674 210.427322,71.961891 210.980850,71.116699 
	C211.874084,71.973206 212.672089,73.243187 214.251450,75.756676 
	C204.577408,75.756676 196.049133,75.790581 187.529953,75.528488 
	C187.348206,75.522896 187.271210,72.111450 187.423035,70.054543 
z"/>
<path fill="#262D3E" opacity="1.000000" stroke="none" 
	d="
M198.242783,12.134480 
	C198.260605,11.959225 198.536987,11.854860 198.915710,11.906225 
	C198.845825,12.109760 198.673584,12.157564 198.242783,12.134480 
z"/>
<path fill="#3C465B" opacity="1.000000" stroke="none" 
	d="
M231.551788,224.347900 
	C227.133041,234.591324 223.085220,237.803299 215.590820,237.295547 
	C210.284546,236.936066 204.536179,232.088623 203.563858,227.153580 
	C201.708847,217.738571 204.586578,210.861557 211.685501,207.744980 
	C216.611282,205.582458 225.147568,207.231323 227.924789,211.904938 
	C230.016953,215.425659 230.482132,219.913177 231.551788,224.347900 
z"/>
<path fill="#3C465C" opacity="1.000000" stroke="none" 
	d="
M227.044922,170.222366 
	C230.242218,177.875717 229.578049,182.949524 225.030075,187.352325 
	C220.003220,192.218735 211.097321,190.743393 207.698318,184.481171 
	C205.190399,179.860687 206.403976,171.664886 210.085175,168.361710 
	C215.833633,163.203568 219.338425,163.520874 227.044922,170.222366 
z"/>
</svg>